<svg id="iorachain" data-name="iorachain"
    xmlns="http://www.w3.org/2000/svg" viewBox="0 0 2000 2000">
    <defs>
        <style>.cls-1{fill:#2de19a;}.cls-2{fill:#79e070;}.cls-3{fill:#6be077;}.cls-4{fill:#3ee190;}.cls-5{fill:#53e084;}.cls-6{fill:#6fe075;}.cls-7{fill:#35e195;}.cls-8{fill:#47e18b;}.cls-9{fill:#63e07c;}.cls-10{fill:#56e083;}.cls-11{fill:#1b1b1a;}.cls-12{fill:#0a1009;}.cls-13{fill:#42e18e;}.cls-14{fill:#76e071;}.cls-15{fill:#4de188;}</style>
    </defs>
    <path class="cls-1" d="M81.3,1216.87c-4.71-17-7.8-34.36-10.83-51.7a944.89,944.89,0,0,1-14-183.48c3-135.13,32.77-264,90.56-386.31a938.8,938.8,0,0,1,203.26-281.5Q535,138.13,782.91,77.4A886.53,886.53,0,0,1,922.67,54.75c.83-.07,1.67,0,2.5,0,0,2.14-1.14,3.74-2.46,5.3Q914,70.26,905.45,80.56c-11.14,13.35-22.21,26.75-33.4,40.06-11.4,13.57-22.95,27-34.36,40.58s-22.93,27.45-34.38,41.19q-14.14,17-28.29,34-14,16.75-28.15,33.46c-9.73,11.51-19.55,22.95-29.25,34.49-11.39,13.57-22.68,27.22-34,40.81-9.36,11.18-18.78,22.3-28.13,33.48-11.16,13.33-22.23,26.74-33.42,40-9.7,11.53-19.57,22.93-29.27,34.47s-19,22.94-28.57,34.38-19.38,23.08-29,34.68c-1.23,1.47-2.35,2.79-4.38,2.92-5.45-6.27-10.79-12.62-17-18.18-33-29.29-70.72-41.42-114.64-33.11C329.67,487,283.6,549.34,292.24,619.21c4.63,37.51,21.75,67.91,52.37,90.42,23.66,17.38,50.25,25.83,79.56,25.8,2.4,0,3.1,1,3.35,3.19a133.69,133.69,0,0,1-.17,31.86c-1.69,13.43-.53,27-1.19,40.43-1.76-.26-2.6.85-3.62,2.07-7.31,8.79-14.71,17.51-22.09,26.25-9.63,11.39-19.3,22.75-28.89,34.17-11.29,13.46-22.48,27-33.75,40.46C328.44,925,319,936.13,309.62,947.32c-11.16,13.34-22.2,26.79-33.4,40.1-11.41,13.58-23,27-34.39,40.59-12.88,15.36-25.57,30.89-38.45,46.25-11.4,13.59-23,27-34.41,40.58-14.46,17.27-28.72,34.72-43.18,52-13.4,16-27,31.89-40.35,47.92C84.22,1216.22,83.11,1217,81.3,1216.87Z"/>
    <path class="cls-2" d="M1945.18,862.8c2.42,6.52,2.92,13.42,3.74,20.21a960.43,960.43,0,0,1,7.06,136.56,982,982,0,0,1-8.56,109.94A949.94,949.94,0,0,1,1194.84,1932c-32.31,6.51-64.88,11.19-97.65,14.59-1.31.14-2.66,0-4,.06,1.25-5.58,6.17-8.51,9.42-12.58,9.09-11.39,18.74-22.33,28.11-33.49q17.23-20.56,34.37-41.19,14.16-17,28.3-34,14-16.77,28.14-33.46c9.73-11.51,19.55-23,29.25-34.49,11.4-13.57,22.7-27.21,34-40.81q14.31-17.18,28.62-34.34,14-16.77,28.17-33.45c9.73-11.51,19.53-23,29.22-34.51,11.29-13.44,22.47-27,33.73-40.43,9.46-11.31,19-22.55,28.45-33.85,11.17-13.33,22.25-26.73,33.44-40,9.7-11.54,19.55-23,29.25-34.49,11.51-13.68,23.06-27.34,34.33-41.23,4.55-5.61,10.16-10.47,13.1-17.32,15.7,3.38,31.55,5.66,47.39,1.69,27-6.76,50.87-19.19,66.68-42.91,15-22.55,19.59-47.72,15.64-74.71-2.33-15.89-6.41-30.79-16.24-43.76-5.74-7.57-12.36-14.36-18.73-21.37a13.75,13.75,0,0,0,5.65-4c4-4.65,8-9.29,12-14q14.13-16.69,28.21-33.41c11.5-13.71,22.9-27.48,34.4-41.18,9.48-11.29,19.08-22.48,28.57-33.77,9.8-11.66,19.5-23.41,29.28-35.08,9.26-11,18.59-22,27.83-33.09,11.15-13.34,22.18-26.78,33.37-40.09,11.4-13.57,23-27,34.38-40.56,12.87-15.36,25.56-30.86,38.41-46.24C1921.65,890.62,1933.44,876.73,1945.18,862.8Z"/>
    <path class="cls-3" d="M1945.18,862.8c-11.74,13.93-23.53,27.82-35.22,41.79-12.85,15.38-25.54,30.88-38.41,46.24-11.38,13.58-23,27-34.38,40.56-11.19,13.31-22.22,26.75-33.37,40.09-9.24,11.06-18.57,22-27.83,33.09-9.78,11.67-19.48,23.42-29.28,35.08-9.49,11.29-19.09,22.48-28.57,33.77-11.5,13.7-22.9,27.47-34.4,41.18q-14,16.76-28.21,33.41c-4,4.68-8,9.32-12,14a13.75,13.75,0,0,1-5.65,4c-6.5-4.26-13-8.57-19.5-12.77-10.83-7-16-16.71-15.77-29.71.86-58.8,1.18-117.61,3.06-176.39,1.36-42.12,1.81-84.27,2.4-126.41.41-29.26.33-58.52,1.46-87.79.52-13.7.65-27.53.55-41.3,0-3.52,1.51-6.34,4.36-7.07,3.13-.79,5.49-2.62,8.19-3.93,10.82-5.25,20.7-11.92,28.95-20.74,9.87-10.55,18.49-22.16,27.87-33.14a124.42,124.42,0,0,0,24.86-46.92c4.06-14.09,5-28.38,4.93-42.86,2.08.28,3.47-.88,4.69-2.31,3.76-4.4,7.49-8.82,11.24-13.23,11.45-13.49,22.94-26.94,34.34-40.48,11.71-13.9,23.5-27.75,34.88-41.93,3.49-4.36,9-7.71,8.89-14.39,10.77,15.24,20.07,31.39,29.28,47.58a929.86,929.86,0,0,1,90.93,221.45c6.48,24.34,12.08,48.93,16.54,73.72C1942.16,839.08,1945,850.76,1945.18,862.8Z"/>
    <path class="cls-4" d="M81.3,1216.87c1.81.12,2.92-.65,4.14-2.11,13.38-16,27-31.9,40.35-47.92,14.46-17.28,28.72-34.73,43.18-52,11.39-13.6,23-27,34.41-40.58,12.88-15.36,25.57-30.89,38.45-46.25,11.39-13.59,23-27,34.39-40.59,11.2-13.31,22.24-26.76,33.4-40.1,9.35-11.19,18.82-22.28,28.19-33.46,11.27-13.47,22.46-27,33.75-40.46,9.59-11.42,19.26-22.78,28.89-34.17,7.38-8.74,14.78-17.46,22.09-26.25,1-1.22,1.86-2.33,3.62-2.07-.21,5.49-.57,11-.61,16.46-.33,43.8-1.42,87.59-1.9,131.38-.71,64.46-2.06,128.89-3.36,193.33-.07,3.67-.13,7.33-.19,11-.15,9.85-3.78,17.14-13,22.27a161.34,161.34,0,0,0-30.51,22.35c-15.74,14.5-26,32.11-30.12,53.19-.08.65-.17,1.31-.25,2a1.83,1.83,0,0,0-.62,2.05c-2.37,15.6-2.72,31.3,1.33,46.56,11.52,43.45,39.65,70,83.48,79.83a18.93,18.93,0,0,1-1.81,3.53q-12.81,15.5-25.73,30.9-11.79,14.08-23.63,28.13-11.64,13.89-23.27,27.77-14.36,17.12-28.72,34.23c-7.43,8.88-14.79,17.82-22.23,26.71-10,11.92-19.82,24-30.09,35.64-4,4.5-6.61,10.48-12.86,12.72-13.22-15.65-25.14-32.29-36.79-49.1a942.06,942.06,0,0,1-143.4-321C81.61,1219.51,81.5,1218.18,81.3,1216.87Z"/>
    <path class="cls-5" d="M262.1,1590.92c6.25-2.24,8.9-8.22,12.86-12.72,10.27-11.67,20.11-23.72,30.09-35.64,7.44-8.89,14.8-17.83,22.23-26.71q14.33-17.13,28.72-34.23,11.64-13.87,23.27-27.77,11.81-14.07,23.63-28.13,12.9-15.42,25.73-30.9a18.93,18.93,0,0,0,1.81-3.53c29.3,5.1,55.93-2.14,80.79-17.52a4.41,4.41,0,0,0,3.2-1.76l0,0c6.28-3.52,12.49-2.31,18.62.38a88.22,88.22,0,0,1,8.44,4.18c29.24,16.67,57.78,34.53,86.68,51.76,35.17,21,70.25,42.13,105.42,63.11C753,1503,772,1515.1,791.26,1526.73c-8.34,12.6-19.07,23.27-28.5,35s-19,22.91-28.64,34.32-19.44,23-29.14,34.56-19.17,22.81-28.74,34.24c-7.55,9-15,18.07-22.6,27.07-9.7,11.53-19.49,23-29.18,34.53q-16.92,20.16-33.74,40.4c-9.55,11.44-19.05,22.92-28.66,34.3-7.56,9-15.27,17.82-22.91,26.73-19.28-10.21-37.67-21.89-55.85-33.88a950.69,950.69,0,0,1-164.44-137.4q-28.65-30-54.54-62.39C263.5,1593.18,262.84,1592,262.1,1590.92Z"/>
    <path class="cls-6" d="M1543.16,1407c-2.94,6.85-8.55,11.71-13.1,17.32-11.27,13.89-22.82,27.55-34.33,41.23-9.7,11.54-19.55,23-29.25,34.49-11.19,13.3-22.27,26.7-33.44,40-9.46,11.3-19,22.54-28.45,33.85-11.26,13.46-22.44,27-33.73,40.43-9.69,11.55-19.49,23-29.22,34.51q-14.12,16.71-28.17,33.45-14.35,17.13-28.62,34.34c-11.35,13.6-22.65,27.24-34,40.81-9.7,11.54-19.52,23-29.25,34.49q-14.1,16.69-28.14,33.46-14.19,17-28.3,34-17.17,20.6-34.37,41.19c-9.37,11.16-19,22.1-28.11,33.49-3.25,4.07-8.17,7-9.42,12.58A862.89,862.89,0,0,1,979,1950.49a957.17,957.17,0,0,1-163.42-18.79,17.23,17.23,0,0,1-2.33-.86c.24-2.48,1.82-4.15,3.36-5.95,6.34-7.43,12.55-15,18.83-22.45q14.05-16.74,28.15-33.46c9.73-11.51,19.56-22.94,29.25-34.49,11.17-13.32,22.22-26.74,33.34-40.1s22.06-26.45,33.09-39.67a30.23,30.23,0,0,1,3.25,1.09c15.57,7.38,32.19,10.75,49.17,11.85,12.61.83,25.12-1.4,37.37-4.51,28.72-7.28,52-23.25,70.72-45.78,18.59-22.31,28.52-48,28.66-77.28.08-17.6-2.34-34.73-8.49-51.28-2.56-6.91-1.43-9.43,5.34-12.5,3-1.36,6.06-2.7,9-4.3q161-89.34,322-178.74c10.41-5.79,20.82-6.88,31.73-1.38,2.64,1.33,4.87,3.29,7.52,4.46C1524.51,1400.33,1533.51,1404.54,1543.16,1407Z"/>
    <path class="cls-7" d="M530.8,525.1c2-.13,3.15-1.45,4.38-2.92,9.62-11.6,19.35-23.11,29-34.68s19-23,28.57-34.38,19.57-22.94,29.27-34.47c11.19-13.31,22.26-26.72,33.42-40,9.35-11.18,18.77-22.3,28.13-33.48,11.37-13.59,22.66-27.24,34-40.81,9.7-11.54,19.52-23,29.25-34.49Q761,253.11,775,236.36q14.19-17,28.29-34,17.18-20.61,34.38-41.19c11.41-13.56,23-27,34.36-40.58,11.19-13.31,22.26-26.71,33.4-40.06Q914,70.26,922.71,60c1.32-1.56,2.43-3.16,2.46-5.3C935,53,945,52.82,955,52.31c48.81-2.52,97.57-1.75,146.19,3.53,24,2.61,48,5.58,71.8,10,24,4.44,48,9.38,71.61,15.7,6.87,1.84,13.88,3.16,20.63,5.52-.29,2.27-1.83,3.91-3.17,5.53-7,8.43-14,16.76-21.07,25.14q-28.41,33.9-56.83,67.8-27.18,32.31-54.47,64.53a.92.92,0,0,1-.37-.86l-.91-1.19c-.78-1.07-1.61-2.1-2.33-3.19a127.64,127.64,0,0,0-30.3-32c-19.45-14.61-41.42-22.72-65.63-25.06-28.21-2.73-55,1.57-79.82,15.72-16.16,9.22-28.94,22.07-40.27,36.73a123.67,123.67,0,0,0-25.39,60.51,129.5,129.5,0,0,0,4.63,54.3c2.27,7.5,1.66,8.33-5.33,12.15-26.21,14.32-52.47,28.56-78.63,43-26.88,14.83-53.65,29.87-80.5,44.75Q686.63,476,648.37,497.07c-12.22,6.75-24.46,13.46-36.65,20.25q-30,16.7-60,33.52c-4.09,2.31-6.93.85-8.4-2.77C540,539.91,535.27,532.6,530.8,525.1Z"/>
    <path class="cls-8" d="M1129.65,250q27.24-32.26,54.47-64.53,28.47-33.85,56.83-67.8c7-8.38,14.11-16.71,21.07-25.14,1.34-1.62,2.88-3.26,3.17-5.53,18.94,4.55,37.33,10.9,55.68,17.33a926.19,926.19,0,0,1,199.46,97.82c12.93,8.41,26.05,16.66,37.89,26.68a20.94,20.94,0,0,1-4.73,8.49c-4.47,4.63-8.3,9.87-12.44,14.82q-11.29,13.54-22.64,27-14.55,17.3-29.14,34.55-11.82,14.07-23.58,28.18l-23.59,28.17q-11.32,13.51-22.63,27-14.68,17.5-29.39,35c-7.77,9.26-15.65,18.42-23.31,27.77-6.6,8.07-13.84,15.61-19.68,24.29-23.58-12.87-46.45-26.94-69.25-41.11-42.82-26.6-86.4-51.91-129.86-77.45-5.6-3.29-6.44-5.59-4.41-12.44,5.48-18.5,6-37.2,2.88-56.18C1143.73,280.27,1137.76,264.79,1129.65,250Z"/>
    <path class="cls-9" d="M959.25,1754.72q-16.54,19.83-33.09,39.67c-11.12,13.36-22.17,26.78-33.34,40.1-9.69,11.55-19.52,23-29.25,34.49q-14.12,16.69-28.15,33.46c-6.28,7.48-12.49,15-18.83,22.45-1.54,1.8-3.12,3.47-3.36,5.95-15.61-2.43-30.89-6.41-46.14-10.38a937.81,937.81,0,0,1-191.21-72.54c-12.42-6.34-25-12.46-36.73-20,7.64-8.91,15.35-17.76,22.91-26.73,9.61-11.38,19.11-22.86,28.66-34.3q16.86-20.2,33.74-40.4c9.69-11.54,19.48-23,29.18-34.53,7.57-9,15.05-18.06,22.6-27.07q14.35-17.14,28.74-34.24c9.7-11.53,19.45-23,29.14-34.56s19.3-22.71,28.64-34.32,20.16-22.4,28.5-35c11.69,6.57,22.62,14.35,34.54,20.57,19,9.89,36.13,23,55.55,32.18,9.51,4.51,11.07,8.15,8.13,18.33-5.14,17.81-7,35.83-4.28,54.23,4.2,28.93,16,54.22,36.28,75.41C932.42,1738.86,945.44,1747.31,959.25,1754.72Z"/>
    <path class="cls-10" d="M1347.09,484.19c5.84-8.68,13.08-16.22,19.68-24.29,7.66-9.35,15.54-18.51,23.31-27.77q14.7-17.47,29.39-35,11.33-13.5,22.63-27l23.59-28.17q11.79-14.08,23.58-28.18,14.55-17.29,29.14-34.55,11.35-13.5,22.64-27c4.14-4.95,8-10.19,12.44-14.82a20.94,20.94,0,0,0,4.73-8.49c3.09.78,5.47,2.85,7.94,4.66a951.21,951.21,0,0,1,150.09,136.33A941.07,941.07,0,0,1,1801.92,482a27.19,27.19,0,0,1,1.38,2.62c.13,6.68-5.4,10-8.89,14.39-11.38,14.18-23.17,28-34.88,41.93-11.4,13.54-22.89,27-34.34,40.48-3.75,4.41-7.48,8.83-11.24,13.23-1.22,1.43-2.61,2.59-4.69,2.31-.71-5.27-1.3-10.55-2.14-15.8-5.13-32.2-20.22-58.94-45.43-79.45-30.55-24.84-65.6-34.65-104.76-28.7q-49.9,7.59-82.1,46.48a138,138,0,0,0-17.92,28c-.63,1.3-.84,3.27-3.43,1.47-8.78-6.09-18.18-11.24-27.28-16.85-23.87-14.72-48.14-28.77-72.23-43.14C1351.58,487.55,1349.38,485.79,1347.09,484.19Z"/>
    <path class="cls-11" d="M1347.09,484.19c2.29,1.6,4.49,3.36,6.88,4.79,24.09,14.37,48.36,28.42,72.23,43.14,9.1,5.61,18.5,10.76,27.28,16.85,2.59,1.8,2.8-.17,3.43-1.47a138,138,0,0,1,17.92-28q32.18-38.93,82.1-46.48c39.16-6,74.21,3.86,104.76,28.7,25.21,20.51,40.3,47.25,45.43,79.45.84,5.25,1.43,10.53,2.14,15.8.07,14.48-.87,28.77-4.93,42.86a124.42,124.42,0,0,1-24.86,46.92c-9.38,11-18,22.59-27.87,33.14-8.25,8.82-18.13,15.49-28.95,20.74-2.7,1.31-5.06,3.14-8.19,3.93-2.85.73-4.39,3.55-4.36,7.07.1,13.77,0,27.6-.55,41.3-1.13,29.27-1,58.53-1.46,87.79-.59,42.14-1,84.29-2.4,126.41-1.88,58.78-2.2,117.59-3.06,176.39-.19,13,4.94,22.75,15.77,29.71,6.54,4.2,13,8.51,19.5,12.77,6.37,7,13,13.8,18.73,21.37,9.83,13,13.91,27.87,16.24,43.76,4,27-.61,52.16-15.64,74.71-15.81,23.72-39.69,36.15-66.68,42.91-15.84,4-31.69,1.69-47.39-1.69-9.65-2.48-18.65-6.69-27.72-10.67-2.65-1.17-4.88-3.13-7.52-4.46-10.91-5.5-21.32-4.41-31.73,1.38q-161,89.42-322,178.74c-2.89,1.6-5.94,2.94-9,4.3-6.77,3.07-7.9,5.59-5.34,12.5,6.15,16.55,8.57,33.68,8.49,51.28-.14,29.29-10.07,55-28.66,77.28-18.77,22.53-42,38.5-70.72,45.78-12.25,3.11-24.76,5.34-37.37,4.51-17-1.1-33.6-4.47-49.17-11.85a30.23,30.23,0,0,0-3.25-1.09c-13.81-7.41-26.83-15.86-37.77-27.27C901.16,1706.26,889.4,1681,885.2,1652c-2.68-18.4-.86-36.42,4.28-54.23,2.94-10.18,1.38-13.82-8.13-18.33-19.42-9.21-36.56-22.29-55.55-32.18-11.92-6.22-22.85-14-34.54-20.57C772,1515.1,753,1503,733.61,1491.47c-35.17-21-70.25-42.14-105.42-63.11-28.9-17.23-57.44-35.09-86.68-51.76a88.22,88.22,0,0,0-8.44-4.18c-6.13-2.69-12.34-3.9-18.62-.38a3.31,3.31,0,0,1,1.63-3.4c9.13-6.91,16.17-15.64,22.2-25.28,13.94-22.33,19-46.69,14.64-72.45s-16.79-47.49-37.36-64.39c-17.29-14.22-37.16-21.66-59.1-23.49a98.08,98.08,0,0,0-43.9,6.59c-32.16,12.43-53.21,35.14-63.69,67.86-.41,1.29-.3,3.18-2.37,3.41,4.13-21.08,14.38-38.69,30.12-53.19a161.34,161.34,0,0,1,30.51-22.35c9.19-5.13,12.82-12.42,13-22.27.06-3.67.12-7.33.19-11,1.3-64.44,2.65-128.87,3.36-193.33.48-43.79,1.57-87.58,1.9-131.38,0-5.49.4-11,.61-16.46.66-13.47-.5-27,1.19-40.43a133.69,133.69,0,0,0,.17-31.86c-.25-2.22-.95-3.19-3.35-3.19-29.31,0-55.9-8.42-79.56-25.8-30.62-22.51-47.74-52.91-52.37-90.42C283.6,549.34,329.67,487,399.11,473.81c43.92-8.31,81.67,3.82,114.64,33.11,6.26,5.56,11.6,11.91,17,18.18,4.47,7.5,9.23,14.81,12.55,23,1.47,3.62,4.31,5.08,8.4,2.77q29.91-16.87,60-33.52c12.19-6.79,24.43-13.5,36.65-20.25Q686.59,476,724.8,454.86c26.85-14.88,53.62-29.92,80.5-44.75,26.16-14.43,52.42-28.67,78.63-43,7-3.82,7.6-4.65,5.33-12.15a129.5,129.5,0,0,1-4.63-54.3A123.67,123.67,0,0,1,910,240.16c11.33-14.66,24.11-27.51,40.27-36.73,24.83-14.15,51.61-18.45,79.82-15.72,24.21,2.34,46.18,10.45,65.63,25.06a127.64,127.64,0,0,1,30.3,32c.72,1.09,1.55,2.12,2.33,3.19l.91,1.19a.92.92,0,0,0,.37.86c8.11,14.76,14.08,30.24,16.8,47,3.08,19,2.6,37.68-2.88,56.18-2,6.85-1.19,9.15,4.41,12.44,43.46,25.54,87,50.85,129.86,77.45C1300.64,457.25,1323.51,471.32,1347.09,484.19Zm-313,364.68.33,6c-11.42-1.89-22.85-3.5-34.47-3.12l.39-8.88c.12-.08.35-.18.33-.23a3.67,3.67,0,0,0-.26-.65c.25-5.48.62-11,.72-16.44q1.07-54.91,2-109.84.4-23.22.72-46.44c.29-22.47.87-44.94.37-67.41.36-17,.27-34,1.18-50.92,1.71-31.78.33-63.6,1.6-95.39.11-2.65-.3-5-3.56-5.63-7.5-1.42-15-2.72-22.47-4.42-3.94-.89-6.47.5-8.41,3.62-2.62,4.23-5.17,8.51-7.73,12.78q-59.16,98.6-118.34,197.19c-9.13,15.22-18.62,30.23-27.48,45.61s-7.7,28.51,2.89,41.58c7.78,9.61,12.93,20.31,14.4,32.77a40.77,40.77,0,0,0,3.95,13.8,67.82,67.82,0,0,1,.06,19.3c-.65,5.42-1.31,10.86-.89,16.4,1.11,14.91,10.6,22.9,22.65,29.74,20.31,11.53,40.14,23.89,60.18,35.89-5.87,10.17-11.81,20.3-15.54,31.52-22.18-13.29-44.41-26.5-66.53-39.9-8.07-4.88-16.4-8-26-6,2.88-5,6.25-9.89,8.54-15.19,7.77-18,11.1-36.53,8.63-56.25-2.8-22.36-11.46-42-26.69-58.22-24.21-25.8-54.17-37.16-89.71-33.28a102.94,102.94,0,0,0-45.43,16.31c-14.47,9.37-25.64,21.91-34.22,36.81a36.07,36.07,0,0,0-15.59-16.87c-8.1-4.54-15.94-9.53-23.92-14.28-23.09-13.74-46.21-27.41-69.25-41.21-4.22-2.52-8-2.66-11.87.57-5.35,4.47-11,8.62-16.19,13.26-7.14,6.36-10.18,14.29-7.29,23.75,1.27,4.13.93,8.23.8,12.35q-1.26,40.65-2.68,81.29c-.41,11.65,1.15,23.26.52,34.93C488.34,892,488,920.27,488,948.56a30.69,30.69,0,0,0-.48,3.91c.05,48-1.59,95.92-2.54,143.87-.47,23.47.31,47-1.9,70.39a72.73,72.73,0,0,0-.7,8.93c.12,3.94,1.74,7.23,6.07,8s5.73-2.42,7-5.62a85.61,85.61,0,0,1,6.4-13.47c10.9-17.65,22-35.2,32.64-53,29.4-48.91,58.35-98.1,88.12-146.79,12.62-20.65,23.58-42.31,37.81-62,9.66,5.79,18.78,12.56,29.53,16.4-9.27,16.49-19.25,32.55-29,48.76-36.5,60.7-72.72,121.57-109.29,182.23-8.38,13.91-16.2,28.21-25.92,41.26-5.75,7.72-5.62,13.27,1.85,22.16,3.62,4.31,9.23,4.32,16.64,0,.85-.5,1.63-1.14,2.47-1.66,17.39-10.67,35.38-20.28,53.24-30.11s35.52-19.48,53.22-29.32c15.57-8.66,31-17.56,46.58-26.2,13.84-7.69,27.83-15.09,41.68-22.77,19.56-10.84,39-21.87,58.57-32.73q30.83-17.13,61.75-34.11l52.3-28.92c5.57,4.62,8.15,11.51,12.8,16.9,2.84,3.29,7.2,5.51,8.34,10.22-1.7,1-3.38,2-5.09,3l-43.92,25c-10.83,6-21.63,12.08-32.48,18q-30.84,17-61.73,33.9c-12.84,7.06-25.64,14.19-38.47,21.27q-65.82,36.35-131.64,72.68c-21.77,12-43.45,24.24-65.29,36.15a9.21,9.21,0,0,0-5.07,8A15.4,15.4,0,0,0,568,1269.83c26.82-1.42,53.6.41,80.4.76q32.46.42,64.93,1c22,.41,43.95.89,65.92,1.19,13.65.19,27.31.1,41,.13,19.09,1.4,38.26.18,57.34,1.41,9.09.58,17.46-.62,25.57-4.47a34.78,34.78,0,0,1,0,6c-2.37,14-.39,27.55,3.09,41-5.06-2.81-10.16-5.52-15.82-7-9-1.89-18.1-.56-27.15-.75l-1.94-.1h-3.18l-3-.08q-22.42-1.38-44.88-.81l-2-.09h-7.11l-12-.11c-22-.67-44.08-.46-66.14-1.66-25.4-1.39-50.92-.61-76.4-1-20.78-.33-41.57-1.84-62.39-.61a62.8,62.8,0,0,1-19.28-2.07c-3.85-1-7.28-.88-8.67,3.26s.15,7.44,4.36,9.35a100.77,100.77,0,0,1,9.79,4.94c26.79,16,53.49,32.08,80.31,48,20.37,12.1,40.86,24,61.3,36,12.46,9.11,26.3,16,39.22,24.35,20.06,13,40.88,24.64,61.59,36.5.2.26.35.61.61.77,35.37,22.32,71.66,43.14,107.52,64.65,6.73,4,12.08,3.34,18.3-1.85a92.35,92.35,0,0,1,40.37-19.63c8.81-1.88,9.26-2.73,9.48-11.6.55-22.3,1.28-44.6,1.84-66.91.17-6.64.53-13.32-1-19.89-2.38-10-9.33-16.56-17.29-22.27a7.88,7.88,0,0,1,4.41.1,102.32,102.32,0,0,0,42.67,3.68,101.24,101.24,0,0,0,57.47-25.93c23-20.85,34.55-47.22,35-78.42.11-7.36-1.77-14.44-2-21.71,5.16,5.58,11.23,9.66,18.83,11,8.16,1.48,16.39,1.39,24.63,1,2.18,1.2,4.57.75,6.86.77,35.48.28,71,.17,106.45,1.07,34.3.88,68.62.55,102.9,2.24,23.81,1.18,47.61-1.45,71.42-.21,1.66.09,3.61-.36,4.92.36,5.11,2.81,10.36,1.31,15.54.85,2.86-.25,4.65-2.33,5.55-5.09,3.4-10.41,1.51-14.89-8.33-19.79-.75-.37-1.47-.78-2.18-1.21-37-21.9-73.9-43.9-110.94-65.7-25.57-15-49.66-32.57-76.47-45.54-7-5.08-14.52-9.38-21.9-13.81-55.54-33.38-110.79-67.27-167.33-99a128.37,128.37,0,0,0,21-29,30.09,30.09,0,0,0,3.23,2.3c25.88,13.86,49.39,31.55,74.87,46.08,12.64,7.21,24.45,15.86,37.7,22a22.13,22.13,0,0,0,2.3,1.82q48.07,29.17,96.19,58.29c12,7.28,23.63,15.31,36.28,21.56,1.86,2.26,4.61,3.16,7,4.59,39.67,23.81,80,46.49,118.6,72.11a16.82,16.82,0,0,0,7.38,2.79c6.24.74,9.73-3,12.85-7.65,2.87-4.25,3.07-8.1-.37-12.24a56.73,56.73,0,0,1-5.65-8.79c-13.38-24-26.64-48.17-40.06-72.21-11-19.69-22.14-39.28-33.22-58.92-.71-1.49-1.33-3-2.13-4.48q-33.44-60.26-67-120.46c-4-7.19-7-15.06-12.9-21.12-4.11-4.56-9.62-6.79-15.11-9.05a15.82,15.82,0,0,1,2.17-1.19,101.74,101.74,0,0,0,45.19-32.25c19.54-24.41,27.61-52.31,22.27-82.89-6.37-36.46-26.45-63.46-60.78-79-1.53-.7-3.76-.93-3.7-3.45,13.43,3.43,25.16,10.32,36.18,18.38,10.76,7.87,22.46,8.13,33.38,2.45,27.07-14.09,53.61-29.21,80.32-44,4.31-2.38,4.82-5.24,1.6-8.85-16-18-25.59-39-29.67-62.63-1.08-6.24-4.31-10.47-9.78-13.54q-23-12.92-45.33-27c-6.12-3.86-11.86-8.45-18.88-10.76-12.36-8.29-25.59-15.13-38.1-23.21-15.72-10.15-32-19.46-48-29.16-11.18-6.77-22.08-14-33.74-19.95a19.69,19.69,0,0,0-1.92-1.52c-16.74-10.16-34.08-19.27-50.59-29.88-19.4-12.47-39.52-23.83-59.29-35.73-10-6-19.77-12.28-29.78-18.19a10.2,10.2,0,0,0-14.64,4.61,2.71,2.71,0,0,0,.39,3.23c7.67,8.61,11.15,19.59,16.66,29.43q19.84,35.43,39.67,70.88l31.59,56.5q32.88,59.75,65.83,119.43c2,3.55,4.55,7,8.63,8.76,2.45,3.1,6.37,3.74,9.51,5.7-16.07,3.82-31.53,9.1-45,19.13.6-8.11-2-15.34-5.88-22.31-13.2-23.78-26.19-47.67-39.5-71.38-7.78-13.87-14.94-28.08-23.45-41.53-6.45-14.28-15.38-27.19-22.56-41.1-11.63-22.54-24.64-44.35-36.74-66.65-8.37-15.42-18.26-30-25-46.33-1.87-4.51-5.26-5.72-10.86-4.31-4.49,1.14-8.91,2.6-13.37,3.88-6.75,1.94-7.92,3.34-8,10.58q-.42,50.64-.75,101.27c-1.54,13.26-.71,26.57-.82,39.87,0,.64,0,1.29-.08,1.94,0,1.06,0,2.13,0,3.19l-.09,2a152.41,152.41,0,0,0-.81,21.89l-.07,1.39c-.19,4.15-.56,8.3-.52,12.44.41,38.83-2,77.61-2,116.43,0,28-2.47,55.93-1.1,83.94.1,2,1.13,4.28-.48,6.24Zm509.08,19a5.52,5.52,0,0,0,.4-1.42q.2-46.73.37-93.45l.11-2c0-.36,0-.73,0-1.09,1.32-6.07.68-12.26,1-18.39.24-4.07-1.43-6.42-5.31-7.85-10-3.69-19.78-7.94-27.64-15.36-4.17-3.93-7.76-3.56-12.41-.87-17.23,10-34.69,19.51-52,29.4-13.08,7.5-27,13.65-38.94,23-6,4.66-9.37,9.71-8.74,18.08,2.41,32.34-5.88,61.78-25.38,88-7.44,10-8,20.77-1.69,31.8,5.71,9.92,11.13,20,16.78,30,10.23,18,19.44,36.57,30.3,54.21.53,1.2,1,2.44,1.61,3.59,14,25.24,28.28,50.32,41.94,75.73,21.36,39.74,45.43,78,64.28,119.09,1.45,3.17,3.72,4.77,7.13,3.75s4.24-3.68,3.66-6.74c-1.81-9.43-.82-18.89-.72-28.36.37-39,1.33-77.9,1.69-116.86.4-43.93,2.81-87.85,2.53-131.8C1542.11,902.75,1543.25,885.3,1543.17,867.83Zm-343.83,604.36c1.2-.53,2.45-1,3.6-1.6,48.18-26.72,96.15-53.84,144.6-80.06,37.35-20.2,73.16-43.28,112.24-60.24,3.19-1.38,5.31-3.67,4.41-7.39-.86-3.53-3.93-3-6.55-3-25.82-.24-51.64-.41-77.46-.72-24-.29-48-.74-71.93-1.12l-2.08-.12h-2c-7-.34-14-.91-21-1q-68.94-.76-137.89-1.36c-4.33,0-8.66-.38-13-.31-13.81.23-21.89,7.89-27.7,19.91-9.49,19.64-22.94,36.13-42.09,47.36-8.45,5-17.32,9.17-25.28,14.93-5.53,4-9.1,9.13-9.52,16.14-.54,9-1,17.95-1.71,26.9-1.47,17.93-2.29,35.84-.63,53.82.7,7.59,1.35,8.75,8.76,10.29,1,.2,2,.29,3,.46,18.65,3.25,36.57,8.47,52,20.09,4.62,3.49,8.85,3.55,13.77.76,13-7.38,26.1-14.51,39.14-21.78Q1170.71,1488.21,1199.34,1472.19ZM759,705.19c11.69-1.24,22.16-4.86,28.94-15.25,3.53-5.41,6.64-11.1,10-16.64q71.46-118.51,143-237c3.66-6.08,3.62-6.41-2.25-10.79-1.33-1-2.67-2-3.93-3.06-6.3-5.41-8.83-5.78-16-1.83q-50.49,28-101,56-72.28,40.07-144.59,80.07-56.82,31.47-113.65,62.93a14,14,0,0,0-7.51,9.9,154.7,154.7,0,0,1-6.67,24c-4.37,11.26-4.27,11.19,6.21,17.5,28.7,17.29,57.5,34.44,86,52.09,13.45,8.34,26.12,9.31,39.4,0,16.85-11.82,35.68-18,56.25-19.46A104.08,104.08,0,0,1,759,705.19ZM426.21,716A114.84,114.84,0,0,0,448,714c31.73-5.21,57.84-20.35,77.27-45.81,20-26.2,26.83-55.95,19.11-88.28-8.25-34.56-29.93-58.83-60.93-74.71-23.61-12.09-49.18-16-75.43-12.05-27.08,4-51,15.08-70.44,35-24,24.6-35.14,53.62-31.32,88.13,3.22,29,17.11,52.22,38.85,70.64C368.28,706.58,395.78,715.72,426.21,716Zm1158.64,0A115.75,115.75,0,0,0,1606.6,714c31.53-5.16,57.49-20.08,77-45.27,20-25.79,27.18-55.26,20-87.19-7.88-35.32-29.77-60.44-61.63-76.46-24.93-12.54-51.65-16.12-79.33-11.19-31,5.53-56.76,20.24-76.06,45.17-20,25.83-26.84,55.2-20.11,87.22,5.13,24.43,18.24,44.54,37.18,60.46C1527.05,706.37,1554.43,715.63,1584.85,716ZM1027.9,1746.58c8.9.81,17,.13,25.1-.82,16.61-1.94,30.58-8.44,38.75-24,5.23-10,12-18.76,21-25.53a41.24,41.24,0,0,0,13.93-18.92c4.41-11.43,3.43-23.21,3.56-35a56.62,56.62,0,0,0-8.49-30.27,62.1,62.1,0,0,1-5.66-13.07c-3.84-11.88-5.22-24.49-13.47-35-5.54-7-11.51-12.75-19.71-16-3.55-1.43-7.5-2.22-2.84-7,.81-.82.94-2.44,1.14-3.72,1.44-9.38-6.37-18.41-16-17.63-6.41.51-13,2.38-19.3,1-5.88-1.33-11.35-.48-17.08,0-6.3.58-12.57,1.45-19-1.25-8.63-3.63-13-2.14-18.65,5.29-2.27,3-4.78,3.86-8.32,4.33-7.8,1-15.3,3.51-21.53,8.47a29.61,29.61,0,0,1-9.6,5.08c-4.58,1.47-9.44,2.32-13.74,4.36-16.16,7.65-24.08,12-23.74,31.31,0,1.14.34,2.51-.76,3.26-4,2.74-4.86,7.44-7.16,11.23-4.76,7.88-4.36,16.06,1.13,22.88,3.85,4.79,3.68,9.57,3.83,14.8.14,5.46-.59,11,.83,16.4.47,1.82,0,4-.35,5.9a25.51,25.51,0,0,0,2.21,17.42c7.84,14.56,15.93,29,24.67,43,6.67,10.74,15.42,18,27.46,21.51,7.48,2.15,15,4,22.52,6.17C1001.69,1744.55,1014.73,1748.55,1027.9,1746.58ZM1017.84,428.12c5.37.06,10.55-1.18,15.8-1.83,7.58-.93,14.69-3.93,22.37-4.59,8.64-.74,17.31-2.49,24.07-8.4,7.88-6.89,15.85-13.74,22.8-21.61a62.72,62.72,0,0,0,14.73-28.45c2.08-9.54,4.46-19,6.44-28.58s4.51-19.35,2.22-29.46c-1.08-4.81-1.4-9.81-2.07-14.72-1.17-8.67-1.3-17.53-4.91-25.76-3.14-7.16-5.71-15-12-19.86-16.92-13.2-35.73-23-56.58-28.45-5.7-1.48-11.55-3.28-17.65-2.24a108.65,108.65,0,0,1-30.34.38,47.58,47.58,0,0,0-25.61,4c-2.74,1.23-5.44,2.37-8.54,2.47-22.06.76-37.88,11.45-48.19,30.66-2.31,4.31-3.29,9.41-8.21,12.06-1.35.73-1.42,2.88-2,4.4-3.4,8.22-4.86,16.9-5.51,25.61-.39,5.4-2.19,10.73-.92,16.28,5,21.62,9.44,43.38,16.8,64.37.53,1.5.85,2.69-.43,4.08-6.74,7.31-6.35,10.38,1.92,15.94,11.71,7.86,23.47,15.65,35.15,23.55a29.72,29.72,0,0,0,9.51,4.11C983.47,426.35,1000.84,425.64,1017.84,428.12Z"/>
    <path class="cls-12" d="M346.25,1262.85c1.49,1.2.7,1.7-.62,2.05A1.83,1.83,0,0,1,346.25,1262.85Z"/>
    <path class="cls-12" d="M511.23,1373.77c.25-2.07,1.69-2,3.2-1.76A4.41,4.41,0,0,1,511.23,1373.77Z"/>
    <path class="cls-8" d="M1129.28,249.17l-.91-1.19Z"/>
    <path class="cls-13" d="M914.1,1007.83l-52.3,28.92q-30.88,17.05-61.75,34.11c-19.55,10.86-39,21.89-58.57,32.73-13.85,7.68-27.84,15.08-41.68,22.77-15.58,8.64-31,17.54-46.58,26.2-17.7,9.84-35.47,19.55-53.22,29.32s-35.85,19.44-53.24,30.11c-.84.52-1.62,1.16-2.47,1.66-7.41,4.31-13,4.3-16.64,0-7.47-8.89-7.6-14.44-1.85-22.16,9.72-13,17.54-27.35,25.92-41.26C588.29,1089.56,624.51,1028.69,661,968c9.74-16.21,19.72-32.27,29-48.76,10.57,3.66,21.37,6.34,32.58,6.57,38.61.78,69.14-14.67,91.63-46,9.59-1.94,17.92,1.16,26,6,22.12,13.4,44.35,26.61,66.53,39.9-7.61,27.12-5.76,53.42,6.88,78.77A5.39,5.39,0,0,1,914.1,1007.83Z"/>
    <path class="cls-1" d="M759,705.19a104.08,104.08,0,0,0-25.8-1.58c-20.57,1.48-39.4,7.64-56.25,19.46-13.28,9.32-26,8.35-39.4,0-28.48-17.65-57.28-34.8-86-52.09-10.48-6.31-10.58-6.24-6.21-17.5a154.7,154.7,0,0,0,6.67-24,14,14,0,0,1,7.51-9.9q56.87-31.41,113.65-62.93,72.28-40,144.59-80.07,50.49-28,101-56c7.14-3.95,9.67-3.58,16,1.83,1.26,1.08,2.6,2.06,3.93,3.06,5.87,4.38,5.91,4.71,2.25,10.79q-71.49,118.48-143,237c-3.34,5.54-6.45,11.23-10,16.64C781.16,700.33,770.69,704,759,705.19Z"/>
    <path class="cls-14" d="M1306.17,1318l2.08.12c3.15,1.6,6.53.38,9.78.8,1.91.25,4.61-1.05,5.56.88,1.16,2.37-1.64,4-2.74,5.89a8,8,0,0,1-1,1.08c-7.71,9.09-15.47,18.15-23.13,27.29-11.48,13.7-22.89,27.47-34.36,41.18q-13.87,16.58-27.82,33.08-15.87,18.78-31.8,37.51c-1.63,1.91-3.5,3.6-3.37,6.4q-28.65,16-57.3,32c-13,7.27-26.16,14.4-39.14,21.78-4.92,2.79-9.15,2.73-13.77-.76-15.38-11.62-33.3-16.84-52-20.09-1-.17-2-.26-3-.46-7.41-1.54-8.06-2.7-8.76-10.29-1.66-18-.84-35.89.63-53.82.73-9,1.17-17.93,1.71-26.9.42-7,4-12.14,9.52-16.14,8-5.76,16.83-10,25.28-14.93,19.15-11.23,32.6-27.72,42.09-47.36,5.81-12,13.89-19.68,27.7-19.91,4.32-.07,8.65.26,13,.31q68.94.68,137.89,1.36c7,.08,14,.65,21,1C1304.85,1318.89,1305.51,1318.9,1306.17,1318Z"/>
    <path class="cls-15" d="M1156.57,600.68c8.51,13.45,15.67,27.66,23.45,41.53,13.31,23.71,26.3,47.6,39.5,71.38,3.87,7,6.48,14.2,5.88,22.31-37.37,27.67-52.47,75.24-37.5,119.26-1.25,1.32-2.42,2.73-3.77,3.94-6.76,6-15,9.59-22.81,14-20.31,11.42-41.17,21.85-61.15,33.88-1.59-.85-2-2.56-2.85-4A107.74,107.74,0,0,0,1069,872c-10.25-7.6-21.78-12.49-33.72-16.6.61-6.18-1.12-12.21-1.06-18.38.16-18.62,0-37.25.9-55.88.6-11.63.12-23.32.19-35,0-1.76-.65-3.7.9-5.22,4.92-1.19,6.56-5.94,9.36-9.19,13.09-15.19,25.67-30.8,38.55-46.16,11.4-13.59,23-27,34.42-40.57q17.6-20.93,35-42C1154.37,602,1155.08,600.84,1156.57,600.68Z"/>
    <path class="cls-9" d="M1034.15,1058.93c4.65-1.76,9.33-3.45,13.94-5.3,12-4.85,22.24-12.51,32.1-20.73,56.54,31.69,111.79,65.58,167.33,99,7.38,4.43,14.9,8.73,21.9,13.81a16.32,16.32,0,0,0-4.24,4.13q-8.45,10.42-17.1,20.66c-11.43,13.54-23,27-34.37,40.55-11.61,13.81-23.12,27.7-34.7,41.54-5.64,6.73-11.64,13.17-16.88,20.19-2.32,3.12-4,6-8.43,5.18-8.24.44-16.47.53-24.63-1-7.6-1.38-13.67-5.46-18.83-11-4.3-16.41-11-31.6-22-44.77a106.29,106.29,0,0,0-52.08-34.31c-3.37-6.17-4.13-12.83-4.1-19.74.09-21.46,0-42.92,1-64.36C1033.71,1088.15,1031.75,1073.48,1034.15,1058.93Z"/>
    <path class="cls-3" d="M1544.05,771c0,.66-.07,1.33-.11,2-1.39,1.77-.74,3.84-.75,5.77q-.18,40.59-.25,81.16c-2.72.53-4,2.79-5.59,4.67q-9.43,11.24-18.83,22.49-14.19,17-28.39,33.93-13.7,16.39-27.38,32.83c-9.89,11.81-19.65,23.74-29.82,35.32-4,4.5-6.55,10.51-12.83,12.7-10.86-17.64-20.07-36.21-30.3-54.21-5.65-10-11.07-20-16.78-30-6.34-11-5.75-21.8,1.69-31.8,19.5-26.2,27.79-55.64,25.38-88-.63-8.37,2.77-13.42,8.74-18.08,12-9.36,25.86-15.51,38.94-23,17.27-9.89,34.73-19.44,52-29.4,4.65-2.69,8.24-3.06,12.41.87,7.86,7.42,17.65,11.67,27.64,15.36,3.88,1.43,5.55,3.78,5.31,7.85-.35,6.13.29,12.32-1,18.39-.12.11-.35.24-.34.32A5.75,5.75,0,0,0,1544.05,771Z"/>
    <path class="cls-7" d="M840.27,792.85a40.77,40.77,0,0,1-3.95-13.8c-1.47-12.46-6.62-23.16-14.4-32.77-10.59-13.07-11.77-26.2-2.89-41.58s18.35-30.39,27.48-45.61Q905.7,560.51,964.85,461.9c2.56-4.27,5.11-8.55,7.73-12.78,1.94-3.12,4.47-4.51,8.41-3.62,7.44,1.7,15,3,22.47,4.42,3.26.61,3.67,3,3.56,5.63-1.27,31.79.11,63.61-1.6,95.39-.91,16.95-.82,33.95-1.18,50.92a4.19,4.19,0,0,0-3,1.59q-15.79,18.84-31.57,37.7Q955,658.67,940.41,676.23c-9.26,11-18.58,22-27.83,33.07q-17.05,20.37-34,40.79c-9.54,11.45-18.87,23.07-28.74,34.22C847.06,787.43,845.78,792.68,840.27,792.85Z"/>
    <path class="cls-13" d="M840.27,792.85c5.51-.17,6.79-5.42,9.54-8.54,9.87-11.15,19.2-22.77,28.74-34.22q17-20.4,34-40.79c9.25-11,18.57-22,27.83-33.07q14.65-17.52,29.26-35.08,15.76-18.87,31.57-37.7a4.19,4.19,0,0,1,3-1.59c.5,22.47-.08,44.94-.37,67.41q-.3,23.22-.72,46.44-1,54.91-2,109.84c-.1,5.48-.47,11-.72,16.44a.85.85,0,0,0-.07.88l-.39,8.88c-10.65,1.65-21.27,3.39-31.35,7.48a105.58,105.58,0,0,0-42.86,31.48c-1,1.27-1.81,2.83-3.47,3.47-20-12-39.87-24.36-60.18-35.89-12.05-6.84-21.54-14.83-22.65-29.74-.42-5.54.24-11,.89-16.4A67.82,67.82,0,0,0,840.27,792.85Z"/>
    <path class="cls-7" d="M622.08,819.91c.58,32.35,12.6,59.46,37,80.9a9.25,9.25,0,0,1,1.35,2c-14.22,19.67-25.18,41.33-37.8,62-29.77,48.69-58.72,97.88-88.12,146.79-10.69,17.77-21.74,35.32-32.64,53a85.61,85.61,0,0,0-6.4,13.47c-1.29,3.2-2.72,6.39-7,5.62s-6-4.06-6.07-8a72.73,72.73,0,0,1,.7-8.93c2.21-23.42,1.43-46.92,1.9-70.39.95-47.95,2.59-95.9,2.54-143.87a30.69,30.69,0,0,1,.48-3.91c.08,7.15.1,14.3.28,21.45,0,1.5-1,3.85,1.1,4.31,1.59.35,2.6-1.74,3.65-3,4.08-5,8.12-10,12.28-15,11.08-13.17,22.25-26.27,33.31-39.46q19.77-23.58,39.41-47.27c11.55-13.85,22.94-27.85,34.81-41.42C615.51,825.18,616.81,820.17,622.08,819.91Z"/>
    <path class="cls-1" d="M622.08,819.91c-5.27.26-6.57,5.27-9.21,8.28-11.87,13.57-23.26,27.57-34.81,41.42q-19.71,23.63-39.41,47.27c-11.06,13.19-22.23,26.29-33.31,39.46-4.16,4.94-8.2,10-12.28,15-1.05,1.28-2.06,3.37-3.65,3-2.12-.46-1.06-2.81-1.1-4.31-.18-7.15-.2-14.3-.28-21.45,0-28.29.31-56.58,1.83-84.83.63-11.67-.93-23.28-.52-34.93q1.41-40.63,2.68-81.29c.13-4.12.47-8.22-.8-12.35-2.89-9.46.15-17.39,7.29-23.75,5.21-4.64,10.84-8.79,16.19-13.26,3.88-3.23,7.65-3.09,11.87-.57,23,13.8,46.16,27.47,69.25,41.21,8,4.75,15.82,9.74,23.92,14.28a36.07,36.07,0,0,1,15.59,16.87A110.29,110.29,0,0,0,622.08,819.91Z"/>
    <path class="cls-9" d="M1101.17,1003.89c9.35-19.32,13-39.58,10.07-60.92,18.47-10.09,36.8-20.43,55.43-30.21,13.71-7.2,26-17.33,41.56-20.82,1.7-.08,2.65,1.12,3.72,2.16q45.67,44.07,106.78,26.94c.8-.23,1.63-.32,2.44-.48,5.49,2.26,11,4.49,15.11,9.05-.44,3.74-3.87,5.26-5.91,7.79q-13.41,16.64-27.19,33c-11.41,13.58-23,27-34.4,40.58-13.33,15.85-26.71,31.66-39.74,47.75-4.13,5.1-9.57,9.25-12.07,15.62-13.25-6.19-25.06-14.84-37.7-22-25.48-14.53-49-32.22-74.87-46.08A30.09,30.09,0,0,1,1101.17,1003.89Z"/>
    <path class="cls-5" d="M935.24,1035c1.65-.15,2.74.85,3.89,1.83,15.93,13.6,34.42,21.46,55.08,24.44-1.9,6.48-7.36,10.4-11.33,15.34-9.23,11.49-19,22.58-28.41,33.88-11.27,13.45-22.47,27-33.74,40.42-9.36,11.17-18.82,22.26-28.17,33.43-11.15,13.34-22.18,26.77-33.36,40.08-11.4,13.57-23.05,26.93-34.28,40.64-1.85,2.26-5.14,4.06-4.7,7.85-13.65,0-27.31.06-41-.13-22-.3-44-.78-65.92-1.19,1-1.23,2.78-.63,4.07-2.27,7.53-9.63,15.44-19,23.29-28.35,9.35-11.16,18.8-22.24,28.16-33.4,9.67-11.54,19.26-23.15,28.93-34.68,9.35-11.17,18.79-22.26,28.14-33.43,11.25-13.44,22.44-27,33.68-40.4q13.21-15.81,26.54-31.53c1.38-1.62,1-3,.08-4.52l43.92-25C931.86,1037,933.54,1036,935.24,1035Z"/>
    <path class="cls-6" d="M1217,1074.32c2.5-6.37,7.94-10.52,12.07-15.62,13-16.09,26.41-31.9,39.74-47.75,11.41-13.57,23-27,34.4-40.58q13.74-16.36,27.19-33c2-2.53,5.47-4,5.91-7.79,5.9,6.06,8.88,13.93,12.9,21.12q33.61,60.16,67,120.46c.8,1.44,1.42,3,2.13,4.48a9.55,9.55,0,0,1-2.62,6.28q-10.94,12.85-21.74,25.81-19,22.88-38,45.84a5.42,5.42,0,0,1-4.19,2.39c-12.65-6.25-24.24-14.28-36.28-21.56q-48.14-29.07-96.19-58.29A22.13,22.13,0,0,1,1217,1074.32Z"/>
    <path class="cls-14" d="M1153.7,1277.92c4.41.81,6.11-2.06,8.43-5.18,5.24-7,11.24-13.46,16.88-20.19,11.58-13.84,23.09-27.73,34.7-41.54,11.41-13.55,22.94-27,34.37-40.55q8.65-10.24,17.1-20.66a16.32,16.32,0,0,1,4.24-4.13c26.81,13,50.9,30.49,76.47,45.54,37,21.8,74,43.8,110.94,65.7.71.43,1.43.84,2.18,1.21,9.84,4.9,11.73,9.38,8.33,19.79-.9,2.76-2.69,4.84-5.55,5.09-5.18.46-10.43,2-15.54-.85-1.31-.72-3.26-.27-4.92-.36-23.81-1.24-47.61,1.39-71.42.21-34.28-1.69-68.6-1.36-102.9-2.24-35.48-.9-71-.79-106.45-1.07C1158.27,1278.67,1155.88,1279.12,1153.7,1277.92Z"/>
    <path class="cls-14" d="M1420.1,1001.83c6.28-2.19,8.88-8.2,12.83-12.7,10.17-11.58,19.93-23.51,29.82-35.32q13.73-16.39,27.38-32.83,14.19-17,28.39-33.93,9.42-11.25,18.83-22.49c1.58-1.88,2.87-4.14,5.6-4.67.07,2.65.15,5.29.22,7.94.08,17.47-1.06,34.92-1,52.4.28,43.95-2.13,87.87-2.53,131.8-.36,39-1.32,77.9-1.69,116.86-.1,9.47-1.09,18.93.72,28.36.58,3.06-.39,5.76-3.66,6.74s-5.68-.58-7.13-3.75c-18.85-41.08-42.92-79.35-64.28-119.09-13.66-25.41-28-50.49-41.94-75.73C1421.08,1004.27,1420.63,1003,1420.1,1001.83Z"/>
    <path class="cls-15" d="M886.23,1063c.88,1.52,1.3,2.9-.08,4.52q-13.33,15.7-26.54,31.53c-11.24,13.45-22.43,27-33.68,40.4-9.35,11.17-18.79,22.26-28.14,33.43-9.67,11.53-19.26,23.14-28.93,34.68-9.36,11.16-18.81,22.24-28.16,33.4-7.85,9.38-15.76,18.72-23.29,28.35-1.29,1.64-3,1-4.07,2.27q-32.46-.48-64.93-1c-26.8-.35-53.58-2.18-80.4-.76A15.4,15.4,0,0,1,551.55,1253a9.21,9.21,0,0,1,5.07-8c21.84-11.91,43.52-24.11,65.29-36.15q65.8-36.37,131.64-72.68c12.83-7.08,25.63-14.21,38.47-21.27q30.86-17,61.73-33.9C864.6,1075,875.4,1069,886.23,1063Z"/>
    <path class="cls-10" d="M1324.26,721.25a122.84,122.84,0,0,0-47-4.88c-2.3.18-4.61.26-6.91.4-3.14-2-7.06-2.6-9.51-5.7,2.06-.91,3.43-2.62,4.8-4.28,5.8-7,11.44-14.14,17.3-21.1,13.11-15.57,26.36-31,39.46-46.6,13.42-16,26.87-31.88,40-48.06,4-4.94,9.07-9.14,11.72-15.16,7,2.31,12.76,6.9,18.88,10.76q22.32,14.08,45.33,27c5.47,3.07,8.7,7.3,9.78,13.54,4.08,23.6,13.62,44.65,29.67,62.63,3.22,3.61,2.71,6.47-1.6,8.85-26.71,14.79-53.25,29.91-80.32,44-10.92,5.68-22.62,5.42-33.38-2.45-11-8.06-22.75-15-36.18-18.38h-.12C1325.73,721.06,1325,721.21,1324.26,721.25Z"/>
    <path class="cls-3" d="M917.31,1342.67c10,15,22.35,27.68,38.12,36.69,5.61,3.21,11.52,5.91,17.29,8.85,8,5.71,14.91,12.22,17.29,22.27,1.55,6.57,1.19,13.25,1,19.89-.56,22.31-1.29,44.61-1.84,66.91-.22,8.87-.67,9.72-9.48,11.6a92.35,92.35,0,0,0-40.37,19.63c-6.22,5.19-11.57,5.89-18.3,1.85-35.86-21.51-72.15-42.33-107.52-64.65-.26-.16-.41-.51-.61-.77,5.77-2.82,8.7-8.46,12.66-13,9.56-11,18.9-22.22,28.26-33.4,11.39-13.59,22.7-27.24,34.07-40.83Q902.57,1360.16,917.31,1342.67Z"/>
    <path class="cls-4" d="M1156.57,600.68c-1.49.16-2.2,1.27-3.06,2.31q-17.46,21-35,42c-11.42,13.57-23,27-34.42,40.57-12.88,15.36-25.46,31-38.55,46.16-2.8,3.25-4.44,8-9.36,9.19-.19-18.44.47-36.86,1-55.29.47-17.29.22-34.59.29-51.89a3.66,3.66,0,0,0,0-4.63c0-.27-.07-.55-.09-.83l.07-1.39c1.66-7.25.34-14.6.81-21.89l.09-2a2,2,0,0,0,0-3.19c0-.65,0-1.3.08-1.94,1.19-1.45.71-3.16.72-4.77.06-11.7.07-23.4.1-35.1q.36-50.64.75-101.27c.06-7.24,1.23-8.64,8-10.58,4.46-1.28,8.88-2.74,13.37-3.88,5.6-1.41,9-.2,10.86,4.31,6.77,16.31,16.66,30.91,25,46.33,12.1,22.3,25.11,44.11,36.74,66.65C1141.19,573.49,1150.12,586.4,1156.57,600.68Z"/>
    <path class="cls-15" d="M1374.14,575.87c-2.65,6-7.7,10.22-11.72,15.16-13.14,16.18-26.59,32.11-40,48.06-13.1,15.58-26.35,31-39.46,46.6-5.86,7-11.5,14.1-17.3,21.1-1.37,1.66-2.74,3.37-4.8,4.28-4.08-1.73-6.66-5.21-8.63-8.76q-33.08-59.62-65.83-119.43c2.61.44,4-1.46,5.35-3,3.69-4.25,7.26-8.61,10.87-12.93,13.62-16.24,27.37-32.37,40.76-48.8,3.81-4.68,8.79-8.58,10.93-14.55,11.66,5.95,22.56,13.18,33.74,19.95,16,9.7,32.28,19,48,29.16C1348.55,560.74,1361.78,567.58,1374.14,575.87Z"/>
    <path class="cls-10" d="M917.31,1342.67q-14.7,17.5-29.41,35c-11.37,13.59-22.68,27.24-34.07,40.83-9.36,11.18-18.7,22.38-28.26,33.4-4,4.56-6.89,10.2-12.66,13-20.71-11.86-41.53-23.53-61.59-36.5-12.92-8.35-26.76-15.24-39.22-24.35.15-2.14,1.58-3.71,2.79-5.17,8.94-10.83,18-21.55,27.07-32.27,13.12-15.51,26.45-30.86,39.29-46.59,3-3.69,7.73-6.56,8-12.17l12,.11a6.79,6.79,0,0,0,7.1,0l2,.09c1.6,1.3,3.5.73,5.26.74,13.2.06,26.41.05,39.62.07l3,.08a2,2,0,0,0,3.17,0l1.94.1c1.27,1.13,2.83.74,4.28.75,7.62,0,15.25,0,22.87,0,5.66,1.43,10.76,4.14,15.82,7C908.75,1325.92,913,1334.31,917.31,1342.67Z"/>
    <path class="cls-10" d="M820.22,1272.86c-.44-3.79,2.85-5.59,4.7-7.85,11.23-13.71,22.88-27.07,34.28-40.64,11.18-13.31,22.21-26.74,33.36-40.08,9.35-11.17,18.81-22.26,28.17-33.43,11.27-13.46,22.47-27,33.74-40.42,9.46-11.3,19.18-22.39,28.41-33.88,4-4.94,9.43-8.86,11.33-15.34,1.11-.41,1.85.46,2.75.78-1.22,7-1.2,14.15-1.37,21.11-.65,26.87-.28,53.76-.09,80.63.06,7.09-.62,13.88-4.15,20.15-15.52,2.85-30.09,8.11-43.15,17.13-22,15.2-36.4,35.72-43,61.7-.6,2.38-.67,4.94-2.11,7.08-8.11,3.85-16.48,5-25.57,4.47C858.48,1273,839.31,1274.26,820.22,1272.86Z"/>
    <path class="cls-5" d="M789.22,1307.89c-.24,5.61-5,8.48-8,12.17-12.84,15.73-26.17,31.08-39.29,46.59-9.06,10.72-18.13,21.44-27.07,32.27-1.21,1.46-2.64,3-2.79,5.17-20.44-12-40.93-23.9-61.3-36-26.82-15.93-53.52-32-80.31-48a100.77,100.77,0,0,0-9.79-4.94c-4.21-1.91-5.75-5.23-4.36-9.35s4.82-4.25,8.67-3.26a62.8,62.8,0,0,0,19.28,2.07c20.82-1.23,41.61.28,62.39.61,25.48.41,51-.37,76.4,1C745.14,1307.43,767.18,1307.22,789.22,1307.89Z"/>
    <path class="cls-2" d="M1199.34,1472.19c-.13-2.8,1.74-4.49,3.37-6.4q16-18.7,31.8-37.51,13.93-16.52,27.82-33.08c11.47-13.71,22.88-27.48,34.36-41.18,7.66-9.14,15.42-18.2,23.13-27.29a8,8,0,0,0,1-1.08c1.1-1.92,3.9-3.52,2.74-5.89-.95-1.93-3.65-.63-5.56-.88-3.25-.42-6.63.8-9.78-.8,24,.38,48,.83,71.93,1.12,25.82.31,51.64.48,77.46.72,2.62,0,5.69-.55,6.55,3,.9,3.72-1.22,6-4.41,7.39-39.08,17-74.89,40-112.24,60.24-48.45,26.22-96.42,53.34-144.6,80.06C1201.79,1471.22,1200.54,1471.66,1199.34,1472.19Z"/>
    <path class="cls-13" d="M1254.3,503.55c-2.14,6-7.12,9.87-10.93,14.55-13.39,16.43-27.14,32.56-40.76,48.8-3.61,4.32-7.18,8.68-10.87,12.93-1.38,1.59-2.74,3.49-5.35,3l-31.59-56.5q-19.83-35.44-39.67-70.88c-5.51-9.84-9-20.82-16.66-29.43a2.71,2.71,0,0,1-.39-3.23,10.2,10.2,0,0,1,14.64-4.61c10,5.91,19.81,12.19,29.78,18.19,19.77,11.9,39.89,23.26,59.29,35.73,16.51,10.61,33.85,19.72,50.59,29.88A19.69,19.69,0,0,1,1254.3,503.55Z"/>
    <path class="cls-2" d="M1351.74,1156a5.42,5.42,0,0,0,4.19-2.39q19-22.92,38-45.84,10.78-13,21.74-25.81a9.55,9.55,0,0,0,2.62-6.28c11.08,19.64,22.23,39.23,33.22,58.92,13.42,24,26.68,48.16,40.06,72.21a56.73,56.73,0,0,0,5.65,8.79c3.44,4.14,3.24,8,.37,12.24-3.12,4.61-6.61,8.39-12.85,7.65a16.82,16.82,0,0,1-7.38-2.79c-38.57-25.62-78.93-48.3-118.6-72.11C1356.35,1159.15,1353.6,1158.25,1351.74,1156Z"/>
    <path class="cls-3" d="M1037.39,628.28c0,.28,0,.56.09.83l0,4.63c-.07,17.3.18,34.6-.29,51.89-.51,18.43-1.17,36.85-1,55.29-1.55,1.52-.89,3.46-.9,5.22-.07,11.66.41,23.35-.19,35-.95,18.63-.74,37.26-.9,55.88-.06,6.17,1.67,12.2,1.06,18.38l-.83-.51-.33-6c.08-.69.08-1.35-.81-1.54,1.61-2,.58-4.2.48-6.24-1.37-28,1.07-56,1.1-83.94,0-38.82,2.42-77.6,2-116.43C1036.83,636.58,1037.2,632.43,1037.39,628.28Z"/>
    <path class="cls-2" d="M1543.17,867.83c-.07-2.65-.15-5.29-.22-7.94q.1-40.57.24-81.16c0-1.93-.64-4,.75-5.77q-.18,46.72-.37,93.45A5.52,5.52,0,0,1,1543.17,867.83Z"/>
    <path class="cls-6" d="M855.15,1308.91c-13.21,0-26.42,0-39.62-.07-1.76,0-3.66.56-5.26-.74Q832.73,1307.5,855.15,1308.91Z"/>
    <path class="cls-9" d="M1039.28,558c0,11.7,0,23.4-.1,35.1,0,1.61.47,3.32-.72,4.77C1038.57,584.59,1037.74,571.28,1039.28,558Z"/>
    <path class="cls-14" d="M890.41,1309.85c-7.62,0-15.25,0-22.87,0-1.45,0-3,.38-4.28-.75C872.31,1309.29,881.4,1308,890.41,1309.85Z"/>
    <path class="cls-9" d="M1038.27,605c-.47,7.29.85,14.64-.81,21.89A152.41,152.41,0,0,1,1038.27,605Z"/>
    <path class="cls-6" d="M808.29,1308a6.79,6.79,0,0,1-7.1,0Z"/>
    <path class="cls-14" d="M861.32,1309a2,2,0,0,1-3.17,0Z"/>
    <path class="cls-9" d="M1038.38,599.83a2,2,0,0,1,0,3.19C1038.37,602,1038.37,600.89,1038.38,599.83Z"/>
    <path class="cls-2" d="M1306.17,1318c-.66.94-1.32.93-2,0Z"/>
    <path d="M1000.34,842.87a.85.85,0,0,1,.07-.88,3.67,3.67,0,0,1,.26.65C1000.69,842.69,1000.46,842.79,1000.34,842.87Z"/>
    <path class="cls-2" d="M1544.05,771a5.75,5.75,0,0,1-.33-.77c0-.08.22-.21.34-.32C1544.06,770.23,1544.06,770.6,1544.05,771Z"/>
    <path d="M1033.28,847.33c.89.19.89.85.81,1.54Z"/>
    <path class="cls-11" d="M1208.23,891.94c-15.58,3.49-27.85,13.62-41.56,20.82-18.63,9.78-37,20.12-55.43,30.21-1.23-11.21-5-21.68-9.45-31.93-.59-1.34-1.08-2.73-1.61-4.1,20-12,40.83-22.46,61.14-33.88,7.77-4.37,16-7.94,22.81-14,1.35-1.21,2.52-2.62,3.77-3.94,4.36,12,10.21,23.07,18.61,32.76C1207.42,889,1207.67,890.58,1208.23,891.94Z"/>
    <path class="cls-11" d="M991.35,1183.89c3.53-6.27,4.21-13.06,4.15-20.15-.19-26.87-.56-53.76.09-80.63.17-7,.15-14.13,1.37-21.11a173.76,173.76,0,0,0,37.19-3.07c-2.4,14.55-.44,29.22-1.08,43.82-1,21.44-.89,42.9-1,64.36,0,6.91.73,13.57,4.1,19.74-13.28-3.36-26.67-5.4-40.39-3.1A32.94,32.94,0,0,1,991.35,1183.89Z"/>
    <path class="cls-12" d="M1324.26,721.25c.72,0,1.47-.19,1.94.58A1.78,1.78,0,0,1,1324.26,721.25Z"/>
    <path class="cls-9" d="M1037.45,633.74l0-4.63A3.66,3.66,0,0,1,1037.45,633.74Z"/>
    <circle class="cls-11" cx="408.96" cy="596.97" r="146.86"/>
    <circle class="cls-11" cx="1024.54" cy="301.44" r="146.86"/>
    <circle class="cls-11" cx="1585.22" cy="612.14" r="146.86"/>
    <circle class="cls-11" cx="430.44" cy="1262.85" r="146.86"/>
    <circle class="cls-11" cx="1585.22" cy="1302.01" r="146.86"/>
    <circle class="cls-11" cx="1007.04" cy="1632.28" r="146.86"/>
    <circle class="cls-11" cx="1013.77" cy="1283.81" r="115.97"/>
    <circle class="cls-11" cx="1015.22" cy="964.82" r="115.97"/>
    <circle class="cls-11" cx="1280.26" cy="819.91" r="115.97"/>
    <circle class="cls-11" cx="737.81" cy="820.39" r="115.97"/>
    <circle class="cls-11" cx="1584.32" cy="612.14" r="146.86"/>
</svg>